HIERARCHY
ROOT hip
{
	OFFSET 0.000000 0.000000 0.000000 
	CHANNELS 6 Xposition Yposition Zposition Xrotation Zrotation Yrotation
	JOINT abdomen
	{
		OFFSET 0.000000 3.402643 0.000000 
		CHANNELS 3 Xrotation Zrotation Yrotation
		JOINT chest
		{
			OFFSET 0.000000 8.438565 -0.680529 
			CHANNELS 3 Xrotation Zrotation Yrotation
			JOINT neck
			{
				OFFSET 0.000000 10.207942 -0.272212 
				CHANNELS 3 Xrotation Zrotation Yrotation
				JOINT head
				{
					OFFSET 0.000000 3.130431 0.000000 
					CHANNELS 3 Xrotation Zrotation Yrotation
					End Site
					{
						OFFSET 0.000000 3.130435 0.000000 
					}
				}
			}
			JOINT lCollar
			{
				OFFSET 3.470700 6.669187 -0.816635 
				CHANNELS 3 Yrotation Zrotation Xrotation
				JOINT lShldr
				{
					OFFSET 3.198488 0.000000 0.000000 
					CHANNELS 3 Zrotation Yrotation Xrotation
					JOINT lForeArm
					{
						OFFSET 10.139888 0.000000 0.000000 
						CHANNELS 3 Yrotation Zrotation Xrotation
						JOINT lHand
						{
							OFFSET 8.370511 0.000000 0.000000 
							CHANNELS 3 Zrotation Yrotation Xrotation
							End Site
							{
								OFFSET 4.083176 0.000000 0.000000 
							}
						}
					}
				}
			}
			JOINT rCollar
			{
				OFFSET -3.470700 6.669187 -0.816635 
				CHANNELS 3 Yrotation Zrotation Xrotation
				JOINT rShldr
				{
					OFFSET -3.198488 0.000000 0.000000 
					CHANNELS 3 Zrotation Yrotation Xrotation
					JOINT rForeArm
					{
						OFFSET -10.139888 0.000000 0.000000 
						CHANNELS 3 Yrotation Zrotation Xrotation
						JOINT rHand
						{
							OFFSET -8.370511 0.000000 0.000000 
							CHANNELS 3 Zrotation Yrotation Xrotation
							End Site
							{
								OFFSET -4.083176 0.000000 0.000000 
							}
						}
					}
				}
			}
		}
	}
	JOINT lThigh
	{
		OFFSET 5.308129 -1.633274 1.361059 
		CHANNELS 3 Xrotation Zrotation Yrotation
		JOINT lShin
		{
			OFFSET -2.041588 -20.007561 0.000000 
			CHANNELS 3 Xrotation Zrotation Yrotation
			JOINT lFoot
			{
				OFFSET 0.000000 -19.190928 -1.224953 
				CHANNELS 3 Xrotation Yrotation Zrotation
				End Site
				{
					OFFSET 0.000000 -2.449906 4.627600 
				}
			}
		}
	}
	JOINT rThigh
	{
		OFFSET -5.308129 -1.633274 1.361059 
		CHANNELS 3 Xrotation Zrotation Yrotation
		JOINT rShin
		{
			OFFSET 2.041588 -20.007561 0.000000 
			CHANNELS 3 Xrotation Zrotation Yrotation
			JOINT rFoot
			{
				OFFSET 0.000000 -19.190928 -1.224953 
				CHANNELS 3 Xrotation Yrotation Zrotation
				End Site
				{
					OFFSET 0.000000 -2.449906 4.627600 
				}
			}
		}
	}
}
MOTION
Frames: 16
Frame Time: 0.016667
-0.013223 43.808548 -0.583404 13.055700 -7.898630 5.420750 -20.232901 3.555280 0.803435 15.758500 4.213750 0.701546 17.560949 -6.265985 2.548002 13.226900 7.347060 3.329000 2.000000 -2.000000 0.000000 -84.169502 -4.173790 157.332993 30.791300 -0.332293 0.070046 0.044859 -0.008501 -139.959000 -2.000000 2.000000 0.000000 83.080399 -4.052130 163.125000 -43.760201 0.313591 0.094562 -0.081595 0.072723 -163.875000 -24.683889 -0.474906 6.460456 44.979614 1.684251 3.373999 -20.839108 18.070044 7.350776 -23.119732 2.768960 1.617970 58.775261 -1.313717 -3.873946 -4.220076 -11.560356 -2.447703 
0.385269 43.834255 -0.146378 13.386100 -7.745420 5.350160 -20.266500 3.519540 0.346010 15.686500 4.729040 0.457465 17.377832 -6.685129 2.448375 13.100900 7.436730 3.512060 2.000000 -2.000000 0.000000 -84.169098 -4.360300 156.893997 31.201500 -0.331789 0.070885 0.044920 -0.009594 -140.350006 -2.000000 2.000000 0.000000 82.680801 -4.142790 164.335999 -44.238701 0.312798 0.095384 -0.081546 0.072626 -163.835999 -24.169712 -1.051717 6.670197 44.390686 1.708541 3.341589 -20.662321 18.097048 7.309582 -24.403513 2.483603 1.765891 60.679428 -1.158261 -3.951066 -2.931418 -12.283076 -2.287441 
0.782383 43.795822 0.309065 13.629200 -7.642610 5.388910 -20.276199 3.418730 0.132802 15.606500 4.942530 0.315397 17.161295 -6.851387 2.565587 12.974600 7.516770 3.576030 2.000000 -2.000000 0.000000 -83.837402 -4.799190 157.147995 31.435900 -0.331498 0.071363 0.044968 -0.010358 -140.623001 -2.000000 2.000000 0.000000 82.788399 -4.182410 164.580002 -44.492599 0.312374 0.095817 -0.081201 0.071942 -163.561996 -23.800634 -1.459817 7.104793 44.214073 1.723816 3.342591 -19.934237 18.353762 7.152743 -25.736465 2.414176 1.840229 62.466709 -1.004185 -4.044574 -3.793028 -13.184195 -2.598971 
1.179495 43.757534 0.764509 13.872300 -7.539870 5.428500 -20.285601 3.314500 -0.089542 15.526500 5.146230 0.182495 16.946472 -7.017529 2.663424 12.858200 7.596610 3.650720 2.000000 -2.000000 0.000000 -83.505600 -5.238090 157.403000 31.670300 -0.331206 0.071839 0.045021 -0.011149 -140.906006 -2.000000 2.000000 0.000000 82.896004 -4.231780 164.813995 -44.746498 0.311949 0.096248 -0.080871 0.071282 -163.298996 -23.424770 -1.883996 7.537999 44.047138 1.728537 3.329600 -19.219669 18.601656 6.989827 -27.029474 2.336144 1.921325 64.204712 -0.849868 -4.132386 -4.695313 -14.078543 -2.929080 
1.576431 43.742111 1.245067 14.216900 -7.528660 5.784080 -20.323601 3.170830 -0.361462 15.427300 5.291350 0.023981 16.899355 -7.085922 2.702789 12.858700 7.615910 3.682990 2.000000 -2.000000 0.000000 -83.183601 -5.853040 157.531998 31.885099 -0.330936 0.072275 0.045027 -0.011231 -140.934998 -2.000000 2.000000 0.000000 83.071800 -4.300340 164.901993 -44.912601 0.311670 0.096529 -0.080859 0.071257 -163.289001 -23.119787 -2.345284 7.439105 43.918922 1.744887 3.319870 -18.986383 18.325171 6.799393 -28.454025 2.450188 1.983113 65.383057 -0.722501 -4.176573 -6.340988 -14.320133 -3.380451 
1.973344 43.726688 1.725626 14.571600 -7.526310 6.134730 -20.351299 3.030790 -0.623179 15.328100 5.426680 -0.134138 16.849688 -7.154361 2.761541 12.859100 7.635210 3.725020 2.000000 -2.000000 0.000000 -82.871399 -6.467990 157.660995 32.090199 -0.330676 0.072690 0.045033 -0.011313 -140.964996 -2.000000 2.000000 0.000000 83.237900 -4.378670 164.990005 -45.078602 0.311390 0.096809 -0.080859 0.071257 -163.289001 -22.817152 -2.791106 7.316396 43.820068 1.745891 3.293900 -18.751234 18.033398 6.613065 -29.889687 2.573412 2.067190 66.572052 -0.600519 -4.248324 -7.983146 -14.535433 -3.840703 
2.363484 43.758312 2.235159 15.216600 -7.645600 6.803320 -20.427601 2.894510 -1.097910 15.286300 5.708350 -0.388300 16.542751 -7.213101 2.850671 12.741300 7.657160 3.761210 2.000000 -2.000000 0.000000 -82.481003 -7.464170 157.623993 32.041401 -0.330738 0.072591 0.045080 -0.011967 -141.199005 -2.000000 2.000000 0.000000 83.316200 -4.320590 165.214005 -45.010201 0.311505 0.096694 -0.080738 0.071012 -163.190994 -23.275532 -3.155986 6.811193 43.487095 1.751208 3.285348 -16.948092 17.035578 5.613110 -31.602739 2.768197 1.813529 66.868378 -0.520779 -4.271278 -9.013131 -14.110626 -4.011572 
2.753635 43.789909 2.744691 15.872300 -7.772090 7.484590 -20.512300 2.758030 -1.573240 15.244300 5.999700 -0.653494 16.233877 -7.281590 2.948181 12.633600 7.688530 3.800070 2.000000 -2.000000 0.000000 -82.090599 -8.450600 157.576996 32.002300 -0.330788 0.072512 0.045130 -0.012622 -141.432999 -2.000000 2.000000 0.000000 83.384697 -4.272260 165.429001 -44.941799 0.311620 0.096579 -0.080629 0.070791 -163.102997 -23.671579 -3.515793 6.292357 43.018387 1.736350 3.282798 -15.108228 15.966925 4.674728 -33.328003 2.961555 1.581235 67.156113 -0.441078 -4.321755 -10.041387 -13.682452 -4.155212 
3.235801 44.074554 3.377560 16.498800 -7.897820 7.951920 -20.587601 2.654850 -1.820700 15.183900 6.144970 -0.791462 16.141115 -7.252587 3.076841 12.624600 7.727370 3.794780 2.000000 -2.000000 0.000000 -81.496002 -9.728510 158.205002 31.572599 -0.331328 0.071641 0.045313 -0.014747 -142.195007 -2.000000 2.000000 0.000000 83.540901 -4.379750 165.457993 -44.912601 0.311670 0.096529 -0.081103 0.071747 -163.483994 -24.756035 -3.722521 4.418677 43.578335 1.704611 3.313892 -16.102440 5.960159 1.140396 -34.552376 3.238804 1.451395 65.912857 -0.482106 -4.302745 -10.668833 -12.903740 -4.083298 
3.717968 44.359322 4.010429 17.125799 -8.021670 8.435840 -20.662600 2.560820 -2.071130 15.123300 6.299920 -0.939385 16.048485 -7.223553 3.204270 12.615700 7.766220 3.789480 2.000000 -2.000000 0.000000 -80.911102 -11.016200 158.822998 31.142900 -0.331861 0.070765 0.045523 -0.016870 -142.957001 -2.000000 2.000000 0.000000 83.707001 -4.487240 165.487000 -44.883301 0.311719 0.096480 -0.081571 0.072675 -163.854996 -25.751404 -3.957952 2.545285 43.961956 1.676570 3.340998 -17.648479 -3.975615 -2.513790 -35.808105 3.506821 1.332978 64.680550 -0.501001 -4.296181 -11.314611 -12.137527 -4.011549 
4.226591 44.401089 4.664136 17.171801 -8.169280 8.451700 -20.573799 2.519080 -2.071220 15.006100 6.240370 -0.956379 15.774609 -7.165217 3.312584 12.497400 7.768840 3.763880 2.000000 -2.000000 0.000000 -80.579903 -11.991900 159.205994 31.064800 -0.331958 0.070606 0.045549 -0.017114 -143.044998 -2.000000 2.000000 0.000000 83.765900 -4.790920 165.897003 -44.883301 0.311719 0.096480 -0.082664 0.074787 -164.705002 -25.540730 -4.218835 1.831495 44.462601 1.665712 3.381137 -15.680713 -8.707500 -3.995800 -36.938068 4.016877 1.234000 63.496193 -0.532367 -4.273921 -11.951157 -11.093823 -3.854034 
4.735201 44.442856 5.317866 17.227699 -8.316380 8.465920 -20.494801 2.482830 -2.084470 14.879000 6.180710 -0.974184 15.492996 -7.097111 3.411299 12.379200 7.771430 3.728500 2.000000 -2.000000 0.000000 -80.258400 -12.977400 159.589005 30.996401 -0.332042 0.070466 0.045575 -0.017359 -143.132996 -2.000000 2.000000 0.000000 83.834503 -5.084860 166.315994 -44.883301 0.311719 0.096480 -0.083789 0.076884 -165.554001 -25.337015 -4.466883 1.134232 44.941757 1.655497 3.373566 -13.798481 -13.464228 -5.323255 -38.026382 4.536774 1.145376 62.409748 -0.559175 -4.252584 -12.761920 -10.083184 -3.643935 
5.246689 44.333115 5.984538 17.329300 -8.377250 8.441410 -20.336300 2.419450 -2.197900 14.898000 6.239220 -1.046180 15.135378 -7.175262 3.578984 12.242300 7.822730 3.775520 2.000000 -2.000000 0.000000 -80.004997 -13.964000 159.483994 31.123400 -0.331885 0.070726 0.045534 -0.016978 -142.996002 -2.000000 2.000000 0.000000 83.668701 -5.202730 166.608994 -44.580502 0.312227 0.095966 -0.083229 0.075850 -165.134995 -24.601345 -5.055512 0.880155 44.764423 1.683335 3.369883 -13.437464 -13.082762 -5.234428 -39.598259 4.958079 1.049754 61.765537 -0.549328 -4.266196 -14.315298 -8.336228 -3.284144 
5.758154 44.223495 6.651208 17.431000 -8.438020 8.416700 -20.177799 2.356020 -2.311410 14.916900 6.307460 -1.128850 14.785825 -7.253328 3.755141 12.105400 7.874020 3.822300 2.000000 -2.000000 0.000000 -79.741798 -14.950500 159.378006 31.250299 -0.331729 0.070985 0.045497 -0.016625 -142.869003 -2.000000 2.000000 0.000000 83.493103 -5.320600 166.901001 -44.268002 0.312749 0.095434 -0.082677 0.074812 -164.714996 -23.885626 -5.635811 0.609224 44.585751 1.716618 3.339501 -13.084478 -12.659234 -5.117218 -41.180794 5.373394 0.940571 61.159119 -0.550182 -4.255638 -15.918545 -6.620243 -2.882425 
6.332202 44.000671 7.365387 17.312201 -8.434080 8.583260 -20.007999 2.197510 -2.399920 14.830500 6.121880 -1.188480 14.572420 -7.204593 4.158925 12.019800 8.020960 3.791360 2.000000 -2.000000 0.000000 -79.313202 -15.965100 159.869003 31.308901 -0.331656 0.071104 0.045672 -0.018229 -143.445007 -2.000000 2.000000 0.000000 83.395798 -5.614540 167.320999 -44.326599 0.312652 0.095534 -0.083397 0.076163 -165.261993 -22.570202 -6.517533 0.247537 44.131519 1.780324 3.298782 -13.132624 -11.546346 -4.946971 -42.756954 5.540671 0.084046 60.299896 -0.534970 -4.266268 -16.692448 -6.502712 -2.861770 
6.906250 43.777836 8.079577 17.203300 -8.429640 8.738590 -19.838499 2.051370 -2.483610 14.744100 5.936340 -1.257290 14.349158 -7.165289 4.562622 11.944300 8.177400 3.764080 2.000000 -2.000000 0.000000 -78.894402 -16.969801 160.358994 31.367500 -0.331583 0.071223 0.045864 -0.019831 -144.020996 -2.000000 2.000000 0.000000 83.288597 -5.918230 167.729996 -44.375401 0.312570 0.095617 -0.084131 0.077507 -165.807999 -21.244816 -7.401386 -0.126657 43.676285 1.846248 3.238859 -13.220048 -10.421234 -4.774728 -44.433769 5.683637 -0.802016 59.653950 -0.556459 -4.259256 -17.585255 -6.387865 -2.815890 
